 <svg width="2000" height="500" viewBox="0 0 2123 1163" fill="none" xmlns="http://www.w3.org/2000/svg">
                        <g id="Frame 1">
                        <g id="elementos">
                        <g id="Group" opacity="0.4">
                        <path id="Vector" opacity="0.4" d="M1492.1 35.1937C1485.05 25.7196 1476.22 17.7668 1466.12 11.7984C1454.54 5.02571 1441.58 1.05129 1428.24 0.181751C1414.91 -0.687787 1401.56 1.57082 1389.22 6.78329C1376.88 11.9957 1365.88 20.0227 1357.07 30.2448C1348.26 40.4668 1341.88 52.6107 1338.42 65.7393C1334.96 78.868 1334.51 92.6303 1337.1 105.964C1339.7 119.299 1345.27 131.848 1353.39 142.644C1361.5 153.441 1371.95 162.195 1383.92 168.232C1395.9 174.27 1409.07 177.428 1422.43 177.465C1424.28 177.465 1426.13 177.465 1427.95 177.283C1443.67 176.274 1458.83 170.952 1471.82 161.883C1484.8 152.814 1495.13 140.335 1501.71 125.774C1508.28 111.212 1510.86 95.1105 1509.16 79.1797C1507.46 63.2489 1501.55 48.0836 1492.06 35.2947L1492.1 35.1937Z" fill="url(#paint0_linear)"/>
                        </g>
                        <path id="Vector_2" opacity="0.2" d="M1504.91 88.6311C1504.91 109.954 1496.93 130.478 1482.58 146.027C1468.24 161.575 1448.61 170.982 1427.69 172.333C1425.97 172.454 1424.22 172.515 1422.47 172.515C1409.83 172.507 1397.36 169.542 1386.03 163.849C1374.69 158.157 1364.8 149.888 1357.1 139.684C1349.41 129.479 1344.13 117.612 1341.66 104.999C1339.2 92.3857 1339.62 79.3653 1342.89 66.9439C1346.16 54.5226 1352.2 43.0331 1360.53 33.3637C1368.87 23.6944 1379.28 16.1042 1390.95 11.1799C1402.63 6.25569 1415.26 4.12932 1427.88 4.96521C1440.49 5.80111 1452.75 9.57687 1463.7 16.0006V16.0006C1473.25 21.6432 1481.6 29.1635 1488.27 38.1231V38.1231C1499.09 52.657 1504.94 70.3975 1504.91 88.6311V88.6311Z" fill="#6C63FF"/>
                        <path id="Vector_3" opacity="0.05" d="M1402.18 35.436C1397.92 37.305 1393.81 39.507 1389.88 42.0223C1387.26 43.5008 1385.01 45.575 1383.31 48.0832C1382.48 49.3412 1382.02 50.8166 1381.99 52.3324C1381.96 53.8482 1382.36 55.3402 1383.15 56.6292C1385.14 59.4172 1389.11 59.8617 1392.42 60.0435C1395.47 60.7021 1398.64 60.5254 1401.6 59.5315C1404.56 58.5376 1407.2 56.7621 1409.27 54.3866L1416.35 47.8408C1418.82 45.578 1421.52 42.4466 1420.45 39.2544C1419.63 36.8099 1416.93 35.6179 1414.49 35.2138C1408.39 33.9938 1402.07 35.1245 1396.75 38.3857" fill="#F55F44"/>
                        <path id="Vector_4" opacity="0.05" d="M1372.56 126.148C1374.96 126.148 1376.89 124.176 1376.89 121.744C1376.89 119.312 1374.96 117.34 1372.56 117.34C1370.17 117.34 1368.23 119.312 1368.23 121.744C1368.23 124.176 1370.17 126.148 1372.56 126.148Z" fill="#F55F44"/>
                        <path id="Vector_5" opacity="0.05" d="M1460.8 109.966C1469.59 109.966 1476.71 102.72 1476.71 93.7829C1476.71 84.8454 1469.59 77.6001 1460.8 77.6001C1452.02 77.6001 1444.89 84.8454 1444.89 93.7829C1444.89 102.72 1452.02 109.966 1460.8 109.966Z" fill="#F55F44"/>
                        <path id="Vector_6" opacity="0.05" d="M1488.29 38.1029C1488.22 42.3314 1486.97 46.4525 1484.67 49.9764C1482.37 53.5003 1479.13 56.2788 1475.32 57.9816C1471.52 59.6844 1467.31 60.2398 1463.21 59.5819C1459.1 58.9239 1455.26 57.0803 1452.16 54.2701C1449.05 51.4599 1446.8 47.8014 1445.68 43.7294C1444.56 39.6575 1444.61 35.3434 1445.83 31.3C1447.05 27.2566 1449.38 23.6539 1452.55 20.9203C1455.72 18.1867 1459.6 16.437 1463.72 15.8794V15.8794C1473.28 21.5516 1481.63 29.1068 1488.29 38.1029V38.1029Z" fill="#F55F44"/>
                        <path id="Vector_7" opacity="0.05" d="M1489.88 136.937C1482.78 147.203 1473.51 155.714 1462.75 161.841C1451.99 167.968 1440 171.554 1427.69 172.333C1427.6 171.181 1427.54 170.01 1427.54 168.838C1427.54 161.476 1429.55 154.26 1433.35 147.995C1437.15 141.729 1442.58 136.659 1449.05 133.351C1455.51 130.043 1462.75 128.627 1469.96 129.26C1477.17 129.893 1484.06 132.551 1489.88 136.937V136.937Z" fill="#F55F44"/>
                        <path id="Vector_8" opacity="0.25" d="M1435.48 706.647C1441.07 706.647 1445.61 702.034 1445.61 696.343C1445.61 690.653 1441.07 686.039 1435.48 686.039C1429.89 686.039 1425.35 690.653 1425.35 696.343C1425.35 702.034 1429.89 706.647 1435.48 706.647Z" fill="#535461"/>
                        <path id="Vector_9" opacity="0.25" d="M85.0193 977.37C90.6131 977.37 95.1478 972.757 95.1478 967.066C95.1478 961.375 90.6131 956.762 85.0193 956.762C79.4255 956.762 74.8909 961.375 74.8909 967.066C74.8909 972.757 79.4255 977.37 85.0193 977.37Z" fill="#535461"/>
                        <path id="Vector_10" opacity="0.25" d="M1826.72 1035.96C1832.31 1035.96 1836.84 1031.35 1836.84 1025.66C1836.84 1019.96 1832.31 1015.35 1826.72 1015.35C1821.12 1015.35 1816.59 1019.96 1816.59 1025.66C1816.59 1031.35 1821.12 1035.96 1826.72 1035.96Z" fill="#535461"/>
                        <path id="Vector_11" opacity="0.25" d="M573.409 547.729C579.003 547.729 583.538 543.116 583.538 537.425C583.538 531.734 579.003 527.121 573.409 527.121C567.816 527.121 563.281 531.734 563.281 537.425C563.281 543.116 567.816 547.729 573.409 547.729Z" fill="#535461"/>
                        <path id="Vector_12" opacity="0.25" d="M540.144 310.826C545.738 310.826 550.273 306.213 550.273 300.522C550.273 294.832 545.738 290.219 540.144 290.219C534.551 290.219 530.016 294.832 530.016 300.522C530.016 306.213 534.551 310.826 540.144 310.826Z" fill="#535461"/>
                        <path id="Vector_13" opacity="0.25" d="M253.747 780.207C259.341 780.207 263.876 775.594 263.876 769.903C263.876 764.213 259.341 759.599 253.747 759.599C248.154 759.599 243.619 764.213 243.619 769.903C243.619 775.594 248.154 780.207 253.747 780.207Z" fill="#535461"/>
                        <path id="Vector_14" opacity="0.25" d="M1686.45 782.005H1677.43V772.853H1673.76V782.005H1664.74V785.762H1673.76V794.914H1677.43V785.762H1686.45V782.005Z" fill="#535461"/>
                        <path id="Vector_15" opacity="0.25" d="M1837.38 464.815H1828.36V455.662H1824.69V464.815H1815.67V468.572H1824.69V477.724H1828.36V468.572H1837.38V464.815Z" fill="#535461"/>
                        <path id="Vector_16" opacity="0.25" d="M1194.66 287.612H1185.64V278.44H1181.97V287.612H1172.95V291.35H1181.97V300.522H1185.64V291.35H1194.66V287.612Z" fill="#535461"/>
                        <path id="Vector_17" opacity="0.25" d="M1588.08 730.507H1579.07V721.355H1575.39V730.507H1566.39V734.264H1575.39V743.417H1579.07V734.264H1588.08V730.507Z" fill="#535461"/>
                        <path id="Vector_18" opacity="0.25" d="M1258.29 1035.09H1249.29V1025.94H1245.62V1035.09H1236.6V1038.85H1245.62V1048H1249.29V1038.85H1258.29V1035.09Z" fill="#535461"/>
                        <path id="Vector_19" opacity="0.25" d="M335.49 406.791H326.474V397.639H322.8V406.791H313.783V410.528H322.8V419.701H326.474V410.528H335.49V406.791Z" fill="#535461"/>
                        <path id="Vector_20" opacity="0.25" d="M21.7067 525.99H12.6904V516.838H9.01631V525.99H0V529.727H9.01631V538.9H12.6904V529.727H21.7067V525.99Z" fill="#535461"/>
                        <path id="Vector_21" opacity="0.25" d="M459.872 901.203H450.855V892.031H447.181V901.203H438.185V904.941H447.181V914.113H450.855V904.941H459.872V901.203Z" fill="#535461"/>
                        <g id="Group_2" opacity="0.4">
                        <path id="Vector_22" opacity="0.4" d="M534.147 703.616C530.791 699.1 526.585 695.309 521.774 692.464C516.256 689.197 510.073 687.267 503.703 686.825C497.334 686.382 490.95 687.439 485.047 689.913C479.144 692.387 473.881 696.212 469.666 701.091C465.452 705.969 462.399 711.77 460.745 718.043C459.091 724.316 458.881 730.892 460.13 737.261C461.379 743.631 464.055 749.621 467.948 754.768C471.842 759.915 476.849 764.08 482.581 766.94C488.314 769.799 494.617 771.276 501.001 771.257C501.875 771.257 502.768 771.257 503.622 771.257C511.106 770.77 518.32 768.231 524.501 763.911C530.681 759.59 535.597 753.648 538.726 746.716C541.855 739.783 543.082 732.118 542.276 724.534C541.47 716.949 538.661 709.728 534.147 703.636V703.616Z" fill="url(#paint1_linear)"/>
                        </g>
                        <path id="Vector_23" opacity="0.2" d="M540.244 729.072C540.243 739.228 536.44 749.003 529.608 756.407C522.775 763.812 513.427 768.291 503.463 768.933C502.649 768.933 501.815 768.933 500.981 768.933C494.962 768.927 489.024 767.513 483.628 764.8C478.231 762.088 473.52 758.149 469.859 753.289C466.197 748.429 463.683 742.778 462.51 736.772C461.338 730.766 461.538 724.566 463.097 718.651C464.655 712.737 467.529 707.266 471.497 702.661C475.465 698.057 480.421 694.442 485.981 692.096C491.541 689.751 497.557 688.737 503.563 689.134C509.57 689.53 515.407 691.326 520.622 694.383V694.383C525.168 697.07 529.144 700.648 532.32 704.909V704.909C537.495 711.861 540.28 720.352 540.244 729.072V729.072Z" fill="#6C63FF"/>
                        <path id="Vector_24" opacity="0.1" d="M491.309 703.737C489.246 704.621 487.254 705.668 485.351 706.869C484.105 707.562 483.031 708.536 482.214 709.718C481.835 710.321 481.634 711.022 481.634 711.738C481.634 712.454 481.835 713.155 482.214 713.758C482.791 714.334 483.484 714.777 484.245 715.056C485.005 715.335 485.816 715.444 486.622 715.374C488.062 715.674 489.553 715.584 490.948 715.112C492.342 714.641 493.59 713.804 494.566 712.687L497.942 709.576C499.114 708.485 500.405 707.01 499.928 705.536C499.662 704.978 499.259 704.499 498.758 704.145C498.257 703.791 497.676 703.574 497.069 703.515C494.168 702.938 491.16 703.478 488.628 705.03" fill="#F55F44"/>
                        <path id="Vector_25" opacity="0.1" d="M477.209 746.932C478.35 746.932 479.274 745.991 479.274 744.831C479.274 743.671 478.35 742.73 477.209 742.73C476.068 742.73 475.144 743.671 475.144 744.831C475.144 745.991 476.068 746.932 477.209 746.932Z" fill="#F55F44"/>
                        <path id="Vector_26" opacity="0.1" d="M519.232 739.234C523.422 739.234 526.819 735.779 526.819 731.517C526.819 727.254 523.422 723.799 519.232 723.799C515.042 723.799 511.646 727.254 511.646 731.517C511.646 735.779 515.042 739.234 519.232 739.234Z" fill="#F55F44"/>
                        <path id="Vector_27" opacity="0.1" d="M532.32 705.091C532.294 707.103 531.702 709.066 530.612 710.746C529.522 712.425 527.98 713.751 526.171 714.565C524.362 715.379 522.361 715.648 520.406 715.338C518.451 715.029 516.624 714.155 515.144 712.82C513.663 711.485 512.591 709.746 512.054 707.809C511.517 705.871 511.538 703.818 512.115 701.893C512.692 699.968 513.801 698.252 515.309 696.949C516.817 695.647 518.661 694.812 520.622 694.545V694.545C525.169 697.237 529.146 700.822 532.32 705.091V705.091Z" fill="#F55F44"/>
                        <path id="Vector_28" opacity="0.1" d="M533.094 752.084C529.718 756.975 525.304 761.031 520.178 763.951C515.053 766.871 509.347 768.581 503.483 768.953C503.483 768.408 503.483 767.842 503.483 767.277C503.472 763.754 504.427 760.298 506.241 757.298C508.056 754.298 510.657 751.872 513.752 750.293C516.847 748.714 520.314 748.046 523.763 748.362C527.212 748.678 530.505 749.967 533.273 752.084H533.094Z" fill="#F55F44"/>
                        </g>
                        <g id="nuvens 1" clip-path="url(#clip0)">
                        <g id="Group_3" filter="url(#filter0_d)">
                        <g id="Group_4" opacity="0.7">
                        <path id="Vector_29" opacity="0.7" d="M1701.83 1018.04C1694.99 980.108 1672.89 945.944 1639.93 922.353C1606.96 898.761 1565.55 887.475 1523.95 890.744C1482.35 894.013 1443.62 911.597 1415.47 939.99C1387.33 968.384 1371.83 1005.5 1372.08 1043.95C1372.08 1044.7 1372.08 1045.44 1372.08 1046.19C1365.94 1047.05 1359.86 1048.25 1353.88 1049.79C1346.21 1021.69 1329.26 996.484 1305.35 977.656C1281.44 958.829 1251.77 947.312 1220.44 944.7C1189.11 942.088 1157.68 948.511 1130.49 963.079C1103.3 977.647 1081.7 999.639 1068.69 1026.01C1055.27 1021.24 1041.18 1018.28 1026.85 1017.21C1024.56 1005.26 1020.73 993.602 1015.43 982.492C1012.94 947.439 996.192 914.538 968.525 890.353C940.857 866.168 904.305 852.477 866.16 852.012C828.017 851.547 791.084 864.343 762.731 887.845C734.378 911.347 716.69 943.828 713.196 978.809C705.345 994.122 700.329 1010.54 698.357 1027.37C663.64 1040.67 635.523 1065.37 619.453 1096.67C603.384 1127.98 600.506 1163.66 611.38 1196.8H1826.5C1832.84 1177.47 1834.54 1157.1 1831.51 1137.1C1828.47 1117.1 1820.76 1097.95 1808.91 1080.96C1797.06 1063.97 1781.35 1049.54 1762.86 1038.68C1744.38 1027.82 1723.55 1020.77 1701.83 1018.04Z" fill="url(#paint2_linear)"/>
                        </g>
                        <path id="Vector_30" d="M878.091 1127.06C958.535 1127.06 1023.75 1067.01 1023.75 992.934C1023.75 918.859 958.535 858.808 878.091 858.808C797.648 858.808 732.436 918.859 732.436 992.934C732.436 1067.01 797.648 1127.06 878.091 1127.06Z" fill="url(#paint3_linear)"/>
                        <path id="Vector_31" d="M877.372 1190.1C965.459 1190.1 1036.87 1124.34 1036.87 1043.23C1036.87 962.115 965.459 896.359 877.372 896.359C789.284 896.359 717.876 962.115 717.876 1043.23C717.876 1124.34 789.284 1190.1 877.372 1190.1Z" fill="url(#paint4_linear)"/>
                        <path id="Vector_32" d="M1525.55 1190.1C1613.64 1190.1 1685.05 1124.34 1685.05 1043.23C1685.05 962.115 1613.64 896.359 1525.55 896.359C1437.46 896.359 1366.06 962.115 1366.06 1043.23C1366.06 1124.34 1437.46 1190.1 1525.55 1190.1Z" fill="url(#paint5_linear)"/>
                        <path id="Vector_33" d="M1517.53 1190.1C1597.98 1190.1 1663.19 1130.05 1663.19 1055.97C1663.19 981.898 1597.98 921.847 1517.53 921.847C1437.09 921.847 1371.88 981.898 1371.88 1055.97C1371.88 1130.05 1437.09 1190.1 1517.53 1190.1Z" fill="url(#paint6_linear)"/>
                        <path id="Vector_34" d="M1352.94 1081.46C1352.96 1102.67 1347.51 1123.58 1337.04 1142.47C1326.57 1161.37 1311.37 1177.69 1292.7 1190.12H1121.84C1101.62 1176.66 1085.49 1158.64 1075 1137.8C1064.5 1116.95 1060 1093.97 1061.92 1071.07C1063.83 1048.16 1072.1 1026.09 1085.94 1006.96C1099.77 987.844 1118.71 972.315 1140.93 961.866C1163.15 951.417 1187.92 946.397 1212.85 947.288C1237.78 948.178 1262.05 954.95 1283.33 966.953C1304.6 978.956 1322.17 995.789 1334.36 1015.84C1346.55 1035.89 1352.94 1058.49 1352.92 1081.46H1352.94Z" fill="url(#paint7_linear)"/>
                        <path id="Vector_35" d="M1533.57 1196.45C1533.57 1200.47 1533.38 1204.44 1532.99 1208.37C1533.01 1208.42 1533.01 1208.48 1532.99 1208.53H1242.84C1242.44 1204.56 1242.24 1200.52 1242.24 1196.47C1242.22 1164.38 1254.7 1133.34 1277.43 1109C1300.15 1084.67 1331.61 1068.65 1366.08 1063.87C1373.28 1062.88 1380.55 1062.37 1387.84 1062.36C1391.56 1062.36 1395.26 1062.49 1398.92 1062.73C1425.02 1064.57 1450.11 1072.85 1471.54 1086.7C1492.97 1100.55 1509.96 1119.46 1520.71 1141.44C1521.31 1142.66 1521.89 1143.89 1522.43 1145.13C1529.79 1161.39 1533.57 1178.83 1533.57 1196.45Z" fill="url(#paint8_linear)"/>
                        <path id="Vector_36" d="M1808.86 1176.99C1808.88 1190.16 1806.78 1203.27 1802.62 1215.88H1523.83C1517.09 1195.26 1515.81 1173.45 1520.09 1152.27C1520.33 1151.11 1520.57 1149.93 1520.85 1148.79C1527.87 1118.8 1545.84 1091.94 1571.75 1072.67C1597.67 1053.39 1629.97 1042.88 1663.29 1042.88C1667.87 1042.88 1672.37 1043.06 1676.83 1043.47C1678.83 1043.62 1680.83 1043.84 1682.83 1044.08C1717.74 1048.45 1749.74 1064.33 1772.92 1088.76C1796.09 1113.2 1808.86 1144.54 1808.86 1176.99Z" fill="url(#paint9_linear)"/>
                        <path id="Vector_37" d="M1753.5 912.455C1767.18 912.455 1778.26 902.247 1778.26 889.656C1778.26 877.064 1767.18 866.856 1753.5 866.856C1739.83 866.856 1728.75 877.064 1728.75 889.656C1728.75 902.247 1739.83 912.455 1753.5 912.455Z" fill="url(#paint10_linear)"/>
                        <g id="Group_5" opacity="0.7">
                        <path id="Vector_38" opacity="0.7" d="M1875.86 1153.89C1891.95 1153.89 1905 1141.88 1905 1127.06C1905 1112.24 1891.95 1100.23 1875.86 1100.23C1859.77 1100.23 1846.72 1112.24 1846.72 1127.06C1846.72 1141.88 1859.77 1153.89 1875.86 1153.89Z" fill="url(#paint11_linear)"/>
                        </g>
                        <path id="Vector_39" d="M1875.86 1152.55C1891.15 1152.55 1903.54 1141.14 1903.54 1127.06C1903.54 1112.98 1891.15 1101.57 1875.86 1101.57C1860.57 1101.57 1848.18 1112.98 1848.18 1127.06C1848.18 1141.14 1860.57 1152.55 1875.86 1152.55Z" fill="url(#paint12_linear)"/>
                        <path id="Vector_40" d="M1874.32 1150.08C1889.61 1150.08 1902 1138.67 1902 1124.59C1902 1110.52 1889.61 1099.1 1874.32 1099.1C1859.03 1099.1 1846.64 1110.52 1846.64 1124.59C1846.64 1138.67 1859.03 1150.08 1874.32 1150.08Z" fill="url(#paint13_linear)"/>
                        <path id="Vector_41" d="M629.019 1002.31C645.906 1002.31 659.598 989.701 659.598 974.15C659.598 958.598 645.906 945.991 629.019 945.991C612.132 945.991 598.44 958.598 598.44 974.15C598.44 989.701 612.132 1002.31 629.019 1002.31Z" fill="url(#paint14_linear)"/>
                        <g id="Group_6" opacity="0.7">
                        <path id="Vector_42" opacity="0.7" d="M629.019 1003.63C646.702 1003.63 661.038 990.434 661.038 974.15C661.038 957.866 646.702 944.665 629.019 944.665C611.336 944.665 597 957.866 597 974.15C597 990.434 611.336 1003.63 629.019 1003.63Z" fill="url(#paint15_linear)"/>
                        </g>
                        <path id="Vector_43" d="M914.11 1190.12C914.59 1188.72 915.01 1187.32 915.43 1185.9C922.06 1163.06 922.024 1139.02 915.324 1116.2C908.624 1093.38 895.499 1072.6 877.275 1055.95C859.052 1039.3 836.377 1027.38 811.543 1021.39C786.712 1015.4 760.601 1015.56 735.856 1021.85C730.062 1023.31 724.376 1025.12 718.836 1027.26C685.479 1040.04 658.462 1063.77 643.023 1093.85C627.585 1123.93 624.825 1158.22 635.279 1190.06H914.11V1190.12Z" fill="url(#paint16_linear)"/>
                        <g id="Group_7" opacity="0.7">
                        <path id="Vector_44" opacity="0.7" d="M1753.5 914.26C1768.26 914.26 1780.22 903.244 1780.22 889.656C1780.22 876.067 1768.26 865.052 1753.5 865.052C1738.75 865.052 1726.79 876.067 1726.79 889.656C1726.79 903.244 1738.75 914.26 1753.5 914.26Z" fill="url(#paint17_linear)"/>
                        </g>
                        </g>
                        </g>
                        <g id="inicial 1" clip-path="url(#clip1)">
                        <g id="undraw working late pukg 1">
                        <path id="base" d="M1761.41 777.898C1761.41 822.268 1517.17 985.658 1212.14 985.658C907.11 985.658 667 811.538 667 767.168C667 722.798 907.11 824.958 1212.14 824.958C1517.17 824.958 1761.41 733.488 1761.41 777.898Z" fill="#3F3D56"/>
                        <g id="noite">
                        <path id="Vector_45" d="M1768.78 753.87C1768.78 754.46 1768.78 755.05 1768.78 755.65C1768.11 774.09 1757.84 792.43 1739.1 805.38C1719.22 819.1 1692.56 826.32 1665.19 830.93C1660.91 831.65 1656.61 832.3 1652.32 832.93C1650.13 833.23 1647.95 833.53 1645.78 833.81C1584.85 841.81 1522.64 843.34 1460.72 844.81C1395.95 846.41 1331.12 847.99 1266.28 848.81L1253.42 848.96C1155.04 850.02 1056.7 849.13 958.68 843.55C928.26 841.83 897.54 839.55 867.38 835.71C863.08 835.183 858.793 834.607 854.52 833.98C814.52 828.25 775.71 819.46 740.35 805.19C732.003 801.858 723.838 798.086 715.89 793.89C693.68 782.1 674.95 767.19 665.68 748.89C660.288 738.161 658.067 726.117 659.28 714.17C659.677 709.827 660.422 705.523 661.51 701.3C664.298 690.851 668.55 680.848 674.14 671.59C688.58 647.17 710.27 625.28 728.97 602.35C768.89 553.48 794.89 491.73 758.05 441.64C747.48 427.25 732.2 414.64 723.59 399.59C718.984 391.46 716.111 382.465 715.15 373.17C714.683 368.897 714.505 364.597 714.62 360.3C715.028 350.266 716.283 340.284 718.37 330.46C724.37 299.74 735.58 266.62 770.2 247.46C793.83 234.38 823.95 230.32 854.49 231.09C858.777 231.19 863.063 231.39 867.35 231.69C879.06 232.46 890.7 233.88 901.94 235.69C971.38 246.78 1035.47 269.95 1100.17 290.87C1149.43 306.79 1200.45 321.68 1253.39 328.78C1257.67 329.35 1261.95 329.88 1266.25 330.34C1278.66 331.7 1291.18 332.6 1303.8 332.97C1366.61 334.77 1439.89 321.17 1481.6 285.85C1521.89 251.71 1597.45 248.96 1652.29 269.35L1653.11 269.66C1657.24 271.233 1661.24 272.927 1665.11 274.74C1705.52 293.74 1732.59 326.28 1736.41 360.33C1736.89 364.559 1737 368.821 1736.75 373.07C1736.76 373.113 1736.76 373.157 1736.75 373.2C1734.13 415.09 1699.89 450.27 1665.12 485.51C1660.82 489.86 1656.51 494.21 1652.25 498.59C1640.97 510.17 1630.04 521.84 1620.56 533.85C1616.23 539.294 1612.25 545.005 1608.64 550.95C1605.32 556.433 1602.49 562.195 1600.17 568.17C1597.72 574.355 1596.15 580.851 1595.5 587.47C1594.52 596.958 1596.26 606.527 1600.5 615.07L1600.59 615.27C1609.87 633.67 1629.51 646.71 1652.25 658.27C1656.44 660.41 1660.75 662.49 1665.12 664.55C1689.78 676.19 1716.35 687 1736.55 701.37C1742 705.157 1747.08 709.442 1751.73 714.17C1753.62 716.131 1755.41 718.19 1757.09 720.34C1764.47 729.659 1768.57 741.147 1768.77 753.03C1768.78 753.33 1768.78 753.6 1768.78 753.87Z" fill="#6C63FF"/>
                        <path id="Vector 2" d="M1768.78 753.87C1768.78 754.46 1768.78 755.05 1768.78 755.65C1768.11 774.09 1757.84 792.43 1739.1 805.38C1719.22 819.1 1692.56 826.32 1665.19 830.93C1660.91 831.65 1656.61 832.3 1652.32 832.93C1650.13 833.23 1647.95 833.53 1645.78 833.81C1584.85 841.81 1522.64 843.34 1460.72 844.81C1395.95 846.41 1331.12 847.99 1266.28 848.81L1253.42 848.96C1155.04 850.02 1056.7 849.13 958.68 843.55C928.26 841.83 897.54 839.55 867.38 835.71C863.08 835.183 858.793 834.607 854.52 833.98C814.52 828.25 775.71 819.46 740.35 805.19C732.003 801.858 723.838 798.086 715.89 793.89C693.68 782.1 674.95 767.19 665.68 748.89C660.288 738.161 658.067 726.117 659.28 714.17C659.677 709.827 660.422 705.523 661.51 701.3C664.298 690.851 668.55 680.848 674.14 671.59C688.58 647.17 710.27 625.28 728.97 602.35C768.89 553.48 794.89 491.73 758.05 441.64C747.48 427.25 732.2 414.64 723.59 399.59C718.984 391.46 716.111 382.465 715.15 373.17C714.683 368.897 714.505 364.597 714.62 360.3C715.028 350.266 716.283 340.284 718.37 330.46C724.37 299.74 735.58 266.62 770.2 247.46C793.83 234.38 823.95 230.32 854.49 231.09C858.777 231.19 863.063 231.39 867.35 231.69C879.06 232.46 890.7 233.88 901.94 235.69C971.38 246.78 1035.47 269.95 1100.17 290.87C1149.43 306.79 1200.45 321.68 1253.39 328.78C1257.67 329.35 1261.95 329.88 1266.25 330.34C1278.66 331.7 1291.18 332.6 1303.8 332.97C1366.61 334.77 1439.89 321.17 1481.6 285.85C1521.89 251.71 1597.45 248.96 1652.29 269.35L1653.11 269.66C1657.24 271.233 1661.24 272.927 1665.11 274.74C1705.52 293.74 1732.59 326.28 1736.41 360.33C1736.89 364.559 1737 368.821 1736.75 373.07C1736.76 373.113 1736.76 373.157 1736.75 373.2C1734.13 415.09 1699.89 450.27 1665.12 485.51C1660.82 489.86 1656.51 494.21 1652.25 498.59C1640.97 510.17 1630.04 521.84 1620.56 533.85C1616.23 539.294 1612.25 545.005 1608.64 550.95C1605.32 556.433 1602.49 562.195 1600.17 568.17C1597.72 574.355 1596.15 580.851 1595.5 587.47C1594.52 596.958 1596.26 606.527 1600.5 615.07L1600.59 615.27C1609.87 633.67 1629.51 646.71 1652.25 658.27C1656.44 660.41 1660.75 662.49 1665.12 664.55C1689.78 676.19 1716.35 687 1736.55 701.37C1742 705.157 1747.08 709.442 1751.73 714.17C1753.62 716.131 1755.41 718.19 1757.09 720.34C1764.47 729.659 1768.57 741.147 1768.77 753.03C1768.78 753.33 1768.78 753.6 1768.78 753.87Z" fill="url(#paint18_linear)"/>
                        </g>
                        <path id="Vector 12" d="M1768.78 753.87C1768.78 754.46 1768.78 755.05 1768.78 755.65C1768.27 774.23 1757.98 792.76 1739.1 805.8C1719.22 819.52 1692.56 826.74 1665.19 831.35C1660.91 832.07 1656.61 832.72 1652.32 833.35C1650.13 833.65 1647.95 833.95 1645.78 834.23C1630.78 836.23 1615.7 837.76 1600.57 839.04C1580.27 840.76 1559.87 841.95 1539.45 842.83C1513.23 843.98 1486.96 844.63 1460.72 845.28C1409.43 846.54 1358.1 847.8 1306.72 848.67L1288.49 848.97L1266.25 849.27L1253.39 849.42C1172.39 850.28 1091.51 849.84 1010.77 846.54C1005.4 846.327 1000.03 846.093 994.68 845.84C982.68 845.313 970.68 844.703 958.68 844.01C934.63 842.65 910.39 840.93 886.41 838.38C880.05 837.713 873.717 836.977 867.41 836.17C863.11 835.643 858.823 835.067 854.55 834.44C849.79 833.773 845.05 833.047 840.33 832.26C805.33 826.54 771.54 818.26 740.38 805.64C732.026 802.291 723.851 798.509 715.89 794.31V618.31C720.33 613.16 724.74 608.01 728.98 602.8C734.08 596.54 738.98 590.09 743.48 583.47H840.28V523.82H1010.78V654.96H1288.49V550.96H1608.89C1605.64 556.267 1602.83 561.836 1600.5 567.61V568.17H1600.13C1597.69 574.355 1596.11 580.851 1595.46 587.47C1594.49 596.958 1596.22 606.527 1600.46 615.07V615.49L1600.55 615.69C1609.83 634.09 1629.47 647.13 1652.21 658.69C1656.4 660.83 1660.71 662.91 1665.08 664.97C1689.49 676.49 1715.79 687.21 1735.91 701.37L1736.51 701.79C1741.81 705.465 1746.76 709.608 1751.32 714.17C1751.47 714.31 1751.6 714.45 1751.73 714.59C1753.62 716.551 1755.41 718.61 1757.09 720.76C1764.38 729.968 1768.47 741.292 1768.77 753.03C1768.78 753.33 1768.78 753.6 1768.78 753.87Z" fill="#6C63FF"/>
                        <g id="predio">
                        <path id="predios" opacity="0.3" d="M1768.78 753.87C1768.78 754.46 1768.78 755.05 1768.78 755.65C1768.27 774.23 1757.98 792.76 1739.1 805.8C1719.22 819.52 1692.56 826.74 1665.19 831.35C1660.91 832.07 1656.61 832.72 1652.32 833.35C1650.13 833.65 1647.95 833.95 1645.78 834.23C1630.78 836.23 1615.7 837.76 1600.57 839.04C1580.27 840.76 1559.87 841.95 1539.45 842.83C1513.23 843.98 1486.96 844.63 1460.72 845.28C1409.43 846.54 1358.1 847.8 1306.72 848.67L1288.49 848.97L1266.25 849.27L1253.39 849.42C1172.39 850.28 1091.51 849.84 1010.77 846.54C1005.4 846.327 1000.03 846.093 994.68 845.84C982.68 845.313 970.68 844.703 958.68 844.01C934.63 842.65 910.39 840.93 886.41 838.38C880.05 837.713 873.717 836.977 867.41 836.17C863.11 835.643 858.823 835.067 854.55 834.44C849.79 833.773 845.05 833.047 840.33 832.26C805.33 826.54 771.54 818.26 740.38 805.64C732.026 802.291 723.851 798.509 715.89 794.31V618.31C720.33 613.16 724.74 608.01 728.98 602.8C734.08 596.54 738.98 590.09 743.48 583.47H840.28V523.82H1010.78V654.96H1288.49V550.96H1608.89C1605.64 556.267 1602.83 561.836 1600.5 567.61V568.17H1600.13C1597.69 574.355 1596.11 580.851 1595.46 587.47C1594.49 596.958 1596.22 606.527 1600.46 615.07V615.49L1600.55 615.69C1609.83 634.09 1629.47 647.13 1652.21 658.69C1656.4 660.83 1660.71 662.91 1665.08 664.97C1689.49 676.49 1715.79 687.21 1735.91 701.37L1736.51 701.79C1741.81 705.465 1746.76 709.608 1751.32 714.17C1751.47 714.31 1751.6 714.45 1751.73 714.59C1753.62 716.551 1755.41 718.61 1757.09 720.76C1764.38 729.968 1768.47 741.292 1768.77 753.03C1768.78 753.33 1768.78 753.6 1768.78 753.87Z" fill="black"/>
                        <path id="Vector 13" opacity="0.4" d="M776.29 607.79H747.69V627.09H776.29V607.79Z" fill="black"/>
                        <path id="Vector 14" opacity="0.4" d="M822.05 607.79H793.45V627.09H822.05V607.79Z" fill="black"/>
                        <path id="Vector 15" opacity="0.4" d="M1347.48 568.12H1318.88V587.42H1347.48V568.12Z" fill="black"/>
                        <path id="Vector 16" opacity="0.4" d="M1424.69 568.12H1396.09V587.42H1424.69V568.12Z" fill="black"/>
                        <path id="Vector 17" opacity="0.4" d="M1507.61 568.12H1479.01V587.42H1507.61V568.12Z" fill="black"/>
                        <path id="Vector 18" opacity="0.4" d="M1347.48 627.1H1318.88V646.4H1347.48V627.1Z" fill="black"/>
                        <path id="Vector 19" opacity="0.4" d="M1424.69 627.1H1396.09V646.4H1424.69V627.1Z" fill="black"/>
                        <path id="Vector 20" d="M1507.61 627.1H1479.01V646.4H1507.61V627.1Z" fill="#6C63FF"/>
                        <path id="Vector 21" opacity="0.4" d="M1347.48 686.07H1318.88V705.37H1347.48V686.07Z" fill="black"/>
                        <path id="Vector 22" opacity="0.4" d="M1424.69 686.07H1396.09V705.37H1424.69V686.07Z" fill="black"/>
                        <path id="Vector 23" opacity="0.4" d="M1507.61 686.07H1479.01V705.37H1507.61V686.07Z" fill="black"/>
                        <path id="Vector 24" opacity="0.4" d="M1347.48 745.05H1318.88V764.35H1347.48V745.05Z" fill="black"/>
                        <path id="Vector 25" opacity="0.4" d="M1424.69 745.05H1396.09V764.35H1424.69V745.05Z" fill="black"/>
                        <path id="Vector 26" opacity="0.4" d="M1507.61 745.05H1479.01V764.35H1507.61V745.05Z" fill="black"/>
                        <path id="Vector 27" opacity="0.4" d="M1347.48 804.03H1318.88V823.33H1347.48V804.03Z" fill="black"/>
                        <path id="Vector 28" opacity="0.4" d="M1424.69 804.03H1396.09V823.33H1424.69V804.03Z" fill="black"/>
                        <path id="Vector 29" opacity="0.4" d="M1507.61 804.03H1479.01V823.33H1507.61V804.03Z" fill="black"/>
                        <path id="Vector 30" opacity="0.4" d="M1600.17 568.17C1597.72 574.355 1596.15 580.851 1595.5 587.47H1579.81V568.17H1600.17Z" fill="black"/>
                        <path id="Vector 31" d="M1608.41 627.1H1579.81V646.4H1608.41V627.1Z" fill="#6C63FF"/>
                        <path id="Vector 32" opacity="0.4" d="M1608.41 686.07H1579.81V705.37H1608.41V686.07Z" fill="black"/>
                        <path id="Vector 33" opacity="0.4" d="M1608.41 745.05H1579.81V764.35H1608.41V745.05Z" fill="black"/>
                        <path id="Vector 34" opacity="0.4" d="M1608.41 804.03H1579.81V823.33H1608.41V804.03Z" fill="black"/>
                        <path id="Vector 35" opacity="0.4" d="M935 545.6H906.4V564.9H935V545.6Z" fill="black"/>
                        <path id="Vector 36" d="M935 588.87H906.4V608.17H935V588.87Z" fill="#6C63FF"/>
                        <path id="Vector 37" opacity="0.4" d="M935 632.13H906.4V651.43H935V632.13Z" fill="black"/>
                        <path id="Vector 38" opacity="0.4" d="M935 675.4H906.4V694.7H935V675.4Z" fill="black"/>
                        <path id="Vector 39" opacity="0.4" d="M935 718.66H906.4V737.96H935V718.66Z" fill="black"/>
                        <path id="Vector 40" opacity="0.4" d="M935 761.93H906.4V781.23H935V761.93Z" fill="black"/>
                        <path id="Vector 41" opacity="0.4" d="M935 805.19H906.4V824.49H935V805.19Z" fill="black"/>
                        <path id="Vector 42" opacity="0.4" d="M776.29 658.23H747.69V677.53H776.29V658.23Z" fill="black"/>
                        <path id="Vector 43" opacity="0.4" d="M822.05 658.23H793.45V677.53H822.05V658.23Z" fill="black"/>
                        <path id="Vector 44" opacity="0.4" d="M776.29 708.67H747.69V727.97H776.29V708.67Z" fill="black"/>
                        <path id="Vector 45" opacity="0.4" d="M822.05 708.67H793.45V727.97H822.05V708.67Z" fill="black"/>
                        <path id="Vector 46" opacity="0.4" d="M776.29 759.11H747.69V778.41H776.29V759.11Z" fill="black"/>
                        <path id="Vector 47" opacity="0.4" d="M822.05 759.11H793.45V778.41H822.05V759.11Z" fill="black"/>
                        <path id="Vector 48" opacity="0.4" d="M1210.94 677.45H1067.96V694.7H1210.94V677.45Z" fill="black"/>
                        <path id="Vector 49" opacity="0.4" d="M1210.94 732.49H1067.96V749.74H1210.94V732.49Z" fill="black"/>
                        <path id="Vector 50" opacity="0.4" d="M1210.94 787.54H1067.96V804.79H1210.94V787.54Z" fill="black"/>
                        </g>
                        <g id="linhas">
                        <path id="Vector 51" d="M1665.16 274.74V485.5C1660.86 489.86 1656.55 494.21 1652.29 498.59V269.35L1665.16 274.74Z" fill="#3F3D56"/>
                        <path id="Vector 52" d="M1736.8 373.07C1736.8 373.113 1736.8 373.157 1736.8 373.2H715.15C714.683 368.927 714.506 364.627 714.62 360.33H1736.46C1736.94 364.559 1737.05 368.821 1736.8 373.07Z" fill="#3F3D56"/>
                        <path id="Vector 53" d="M867.35 231.69V835.69C863.05 835.163 858.763 834.587 854.49 833.96V231.09C858.78 231.17 863.06 231.39 867.35 231.69Z" fill="#3F3D56"/>
                        <path id="Vector 54" d="M1266.25 330.32V848.83L1253.39 848.98V328.75C1257.67 329.33 1261.96 329.853 1266.25 330.32Z" fill="#3F3D56"/>
                        <path id="Vector 55" d="M1751.73 714.17H659.28C659.677 709.827 660.422 705.523 661.51 701.3H1736.59C1742.03 705.106 1747.1 709.415 1751.73 714.17Z" fill="#3F3D56"/>
                        <path id="Vector 56" d="M1652.29 658.23C1656.48 660.37 1660.79 662.45 1665.16 664.51V830.93C1660.88 831.65 1656.58 832.3 1652.29 832.93V658.23Z" fill="#3F3D56"/>
                        </g>
                        <g id="estrelas">
                        <path id="Vector 4" d="M780.22 299.05C782.291 299.05 783.97 297.371 783.97 295.3C783.97 293.229 782.291 291.55 780.22 291.55C778.149 291.55 776.47 293.229 776.47 295.3C776.47 297.371 778.149 299.05 780.22 299.05Z" fill="#E7EFFD"/>
                        <path id="Vector 5" d="M942.68 304.42C943.569 304.42 944.29 303.699 944.29 302.81C944.29 301.921 943.569 301.2 942.68 301.2C941.791 301.2 941.07 301.921 941.07 302.81C941.07 303.699 941.791 304.42 942.68 304.42Z" fill="#E7EFFD"/>
                        <path id="Vector 6" d="M822.04 300.67C822.929 300.67 823.65 299.949 823.65 299.06C823.65 298.171 822.929 297.45 822.04 297.45C821.151 297.45 820.43 298.171 820.43 299.06C820.43 299.949 821.151 300.67 822.04 300.67Z" fill="#E7EFFD"/>
                        <path id="Vector 7" d="M820.44 413.12C821.329 413.12 822.05 412.399 822.05 411.51C822.05 410.621 821.329 409.9 820.44 409.9C819.551 409.9 818.83 410.621 818.83 411.51C818.83 412.399 819.551 413.12 820.44 413.12Z" fill="#E7EFFD"/>
                        <path id="Vector 8" d="M1563.01 328.14C1563.9 328.14 1564.62 327.419 1564.62 326.53C1564.62 325.641 1563.9 324.92 1563.01 324.92C1562.12 324.92 1561.4 325.641 1561.4 326.53C1561.4 327.419 1562.12 328.14 1563.01 328.14Z" fill="#E7EFFD"/>
                        <path id="Vector 9" d="M1017.74 329.62C1018.63 329.62 1019.35 328.899 1019.35 328.01C1019.35 327.121 1018.63 326.4 1017.74 326.4C1016.85 326.4 1016.13 327.121 1016.13 328.01C1016.13 328.899 1016.85 329.62 1017.74 329.62Z" fill="#E7EFFD"/>
                        <path id="Vector 10" d="M1483.66 326.4C1484.55 326.4 1485.27 325.679 1485.27 324.79C1485.27 323.901 1484.55 323.18 1483.66 323.18C1482.77 323.18 1482.05 323.901 1482.05 324.79C1482.05 325.679 1482.77 326.4 1483.66 326.4Z" fill="#E7EFFD"/>
                        <path id="Vector 11" d="M1686.33 331.23C1687.22 331.23 1687.94 330.509 1687.94 329.62C1687.94 328.731 1687.22 328.01 1686.33 328.01C1685.44 328.01 1684.72 328.731 1684.72 329.62C1684.72 330.509 1685.44 331.23 1686.33 331.23Z" fill="#E7EFFD"/>
                        <path id="Vector 60" d="M1050.85 558.57C1051.74 558.57 1052.46 557.849 1052.46 556.96C1052.46 556.071 1051.74 555.35 1050.85 555.35C1049.96 555.35 1049.24 556.071 1049.24 556.96C1049.24 557.849 1049.96 558.57 1050.85 558.57Z" fill="#E7EFFD"/>
                        <path id="Vector 61" d="M1418.02 414.73C1418.91 414.73 1419.63 414.009 1419.63 413.12C1419.63 412.231 1418.91 411.51 1418.02 411.51C1417.13 411.51 1416.41 412.231 1416.41 413.12C1416.41 414.009 1417.13 414.73 1418.02 414.73Z" fill="#E7EFFD"/>
                        <path id="Vector 62" d="M1579.81 490.98C1580.7 490.98 1581.42 490.259 1581.42 489.37C1581.42 488.481 1580.7 487.76 1579.81 487.76C1578.92 487.76 1578.2 488.481 1578.2 489.37C1578.2 490.259 1578.92 490.98 1579.81 490.98Z" fill="#E7EFFD"/>
                        <path id="Vector 57" d="M996.33 460.81H993.87V458.35H993.43V460.81H990.97V461.25H993.43V463.71H993.87V461.25H996.33V460.81Z" fill="#E7EFFD"/>
                        <path id="Vector 58" d="M1507.61 409.68H1505.15V407.22H1504.7V409.68H1502.25V410.12H1504.7V412.58H1505.15V410.12H1507.61V409.68Z" fill="#E7EFFD"/>
                        <path id="Vector 59" d="M1054.6 399.73H1052.14V397.27H1051.69V399.73H1049.24V400.18H1051.69V402.63H1052.14V400.18H1054.6V399.73Z" fill="#E7EFFD"/>
                        </g>
                        <path id="Vector 85" opacity="0.1" d="M1230.37 651.53C1230.37 651.53 1251.84 667.94 1268.45 655.43C1268.45 655.43 1240.38 657.99 1230.37 651.53Z" fill="black"/>
                        <g id="plantas1">
                        <path id="Vector 120" d="M1485.89 792.17C1485.89 792.17 1481.89 823.8 1512.13 827.55L1514 824.04C1514 824.04 1487.79 802.04 1485.89 792.17Z" fill="#6C63FF"/>
                        <path id="Vector 121" d="M1523.64 823.83L1516.64 825.32L1515.93 825.47C1515.93 825.47 1494.37 810.25 1494.61 776.27C1494.61 776.27 1500.13 782.19 1506.37 790.44C1513.79 800.27 1522.24 813.4 1523.64 823.83Z" fill="#6C63FF"/>
                        <path id="Vector 122" d="M1526.02 827.09C1525.47 827.448 1524.84 827.678 1524.19 827.762C1523.53 827.847 1522.87 827.785 1522.24 827.58C1504.19 823.36 1507.48 764.58 1507.48 764.58C1508.48 765.05 1512.38 772.58 1516.48 782.18C1523.81 799.17 1531.81 822.83 1526.02 827.09Z" fill="#6C63FF"/>
                        <path id="Vector 123" d="M1563.23 792.17C1563.23 792.17 1567.23 823.8 1536.99 827.55L1535.12 824.04C1535.12 824.04 1561.36 802.04 1563.23 792.17Z" fill="#6C63FF"/>
                        <path id="Vector 124" d="M1554.57 776.27C1554.79 810.27 1533.24 825.47 1533.24 825.47L1532.54 825.32L1525.54 823.83C1526.94 813.4 1535.4 800.27 1542.82 790.44C1549.04 782.17 1554.57 776.27 1554.57 776.27Z" fill="#6C63FF"/>
                        <path id="Vector 125" d="M1532.43 824.01C1531.35 825.328 1529.98 826.382 1528.43 827.09C1527.95 827.302 1527.46 827.467 1526.95 827.58C1522.51 828.58 1520.95 825.42 1521.21 819.98C1521.64 810.29 1527.72 793.49 1533.21 780.98C1537.15 771.92 1540.77 765.06 1541.73 764.61C1541.68 764.56 1544.22 810.35 1532.43 824.01Z" fill="#6C63FF"/>
                        <path id="Vector 126" d="M1524.58 743.94C1524.58 743.94 1507.24 815.4 1524.58 826.18C1541.92 836.96 1529.03 750.27 1524.58 743.94Z" fill="#6C63FF"/>
                        <path id="Vector 127" d="M1551.76 829.69L1550.55 836.02L1546.14 859.21H1504.19L1499.78 836.02L1498.57 829.69H1551.76Z" fill="#D4DFEC"/>
                        <path id="Vector 128" d="M1560.66 822.66H1488.5V834.61H1560.66V822.66Z" fill="#D4DFEC"/>
                        <path id="folha18" d="M1485.89 792.17C1485.89 792.17 1479.1 823.8 1509.32 827.55L1511.19 824.04C1511.19 824.04 1487.79 802.04 1485.89 792.17Z" fill="#6C63FF"/>
                        <path id="folha17" d="M1520.83 823.83L1513.83 825.32L1513.13 825.47C1513.13 825.47 1494.38 810.25 1494.62 776.27C1497.13 781.277 1500.13 786.023 1503.57 790.44C1510.98 800.27 1519.43 813.4 1520.83 823.83Z" fill="#6C63FF"/>
                        <path id="folha16" d="M1523.21 827.09C1522.66 827.448 1522.03 827.678 1521.38 827.762C1520.72 827.847 1520.06 827.785 1519.43 827.58C1501.43 823.36 1507.48 764.58 1507.48 764.58C1508.48 765.05 1509.57 772.58 1513.72 782.18C1521 799.17 1529 822.83 1523.21 827.09Z" fill="#6C63FF"/>
                        <path id="folha15" d="M1563.23 792.17C1563.23 792.17 1564.4 823.8 1534.18 827.55L1532.31 824.04C1532.31 824.04 1561.36 802.04 1563.23 792.17Z" fill="#6C63FF"/>
                        <path id="folha14" d="M1554.57 776.27C1554.79 810.27 1530.43 825.47 1530.43 825.47L1529.73 825.32L1522.73 823.83C1524.12 813.4 1532.59 800.27 1540.01 790.44C1544.21 785.086 1549.1 780.32 1554.57 776.27Z" fill="#6C63FF"/>
                        <path id="folha13" d="M1529.62 824.01C1528.54 825.328 1527.17 826.382 1525.62 827.09C1525.15 827.302 1524.66 827.467 1524.15 827.58C1519.71 828.58 1518.15 825.42 1518.41 819.98C1518.83 810.29 1524.92 793.49 1530.41 780.98C1534.35 771.92 1540.78 765.06 1541.74 764.61C1541.68 764.56 1541.41 810.35 1529.62 824.01Z" fill="#6C63FF"/>
                        <path id="folha12" d="M1524.58 743.94C1524.58 743.94 1504.43 815.4 1521.77 826.18C1539.11 836.96 1529.03 750.27 1524.58 743.94Z" fill="#6C63FF"/>
                        <path id="folha11" opacity="0.1" d="M1485.89 792.17C1485.89 792.17 1479.1 823.8 1509.32 827.55L1511.19 824.04C1511.19 824.04 1487.79 802.04 1485.89 792.17Z" fill="black"/>
                        <path id="folha10" opacity="0.1" d="M1520.83 823.83L1513.83 825.32L1513.13 825.47C1513.13 825.47 1494.38 810.25 1494.62 776.27C1497.13 781.277 1500.13 786.023 1503.57 790.44C1510.98 800.27 1519.43 813.4 1520.83 823.83Z" fill="black"/>
                        <path id="folha09" opacity="0.1" d="M1523.21 827.09C1522.66 827.448 1522.03 827.678 1521.38 827.762C1520.72 827.847 1520.06 827.785 1519.43 827.58C1501.43 823.36 1507.48 764.58 1507.48 764.58C1508.48 765.05 1509.57 772.58 1513.72 782.18C1521 799.17 1529 822.83 1523.21 827.09Z" fill="black"/>
                        <path id="folha08" opacity="0.1" d="M1563.23 792.17C1563.23 792.17 1564.4 823.8 1534.18 827.55L1532.31 824.04C1532.31 824.04 1561.36 802.04 1563.23 792.17Z" fill="black"/>
                        <path id="folha07" opacity="0.1" d="M1554.57 776.27C1554.79 810.27 1530.43 825.47 1530.43 825.47L1529.73 825.32L1522.73 823.83C1524.12 813.4 1532.59 800.27 1540.01 790.44C1544.21 785.086 1549.1 780.32 1554.57 776.27Z" fill="black"/>
                        <path id="folha06" opacity="0.1" d="M1529.62 824.01C1528.54 825.328 1527.17 826.382 1525.62 827.09C1525.15 827.302 1524.66 827.467 1524.15 827.58C1519.71 828.58 1518.15 825.42 1518.41 819.98C1518.83 810.29 1524.92 793.49 1530.41 780.98C1534.35 771.92 1540.78 765.06 1541.74 764.61C1541.68 764.56 1541.41 810.35 1529.62 824.01Z" fill="black"/>
                        <path id="folha05" opacity="0.1" d="M1524.58 743.94C1524.58 743.94 1504.43 815.4 1521.77 826.18C1539.11 836.96 1529.03 750.27 1524.58 743.94Z" fill="black"/>
                        <path id="folha04" opacity="0.1" d="M1523.64 823.83L1516.64 825.32C1509.97 819.47 1507.33 804.2 1506.37 790.44C1513.79 800.27 1522.24 813.4 1523.64 823.83Z" fill="black"/>
                        <path id="folha03" opacity="0.1" d="M1542.79 790.44C1541.89 803.28 1539.54 817.44 1533.84 824.01C1533.44 824.481 1533.01 824.919 1532.54 825.32L1525.54 823.83C1526.89 813.4 1535.37 800.27 1542.79 790.44Z" fill="black"/>
                        <path id="folha02" opacity="0.1" d="M1526.02 827.09C1525 827.085 1524 826.767 1523.17 826.18C1514.68 820.89 1514.51 801.04 1516.53 782.18C1523.81 799.17 1531.81 822.83 1526.02 827.09Z" fill="black"/>
                        <path id="folha01" opacity="0.1" d="M1532.43 824.01C1531.43 826.12 1530.14 827.24 1528.43 827.09C1527.56 826.975 1526.74 826.663 1526.01 826.18C1523.81 824.662 1522.13 822.495 1521.21 819.98C1521.64 810.29 1527.72 793.49 1533.21 780.98C1535.11 798.37 1535.76 816.86 1532.43 824.01Z" fill="black"/>
                        <path id="Vector 117" d="M1557.85 822.66H1485.69V834.61H1496.7L1496.97 836.02L1501.38 859.21H1543.33L1547.74 836.02L1548.01 834.61H1557.85V822.66Z" fill="#D4DFEC"/>
                        <path id="Vector 118" opacity="0.1" d="M1557.82 822.66H1485.66V834.61H1496.67L1496.94 836.02L1501.35 859.21H1543.3L1547.71 836.02L1547.98 834.61H1557.82V822.66Z" fill="black"/>
                        <path id="Vector 119" opacity="0.1" d="M1551.76 829.69L1550.55 836.02H1499.78L1498.57 829.69H1551.76Z" fill="black"/>
                        </g>
                        <g id="homem">
                        <path id="Vector 163" d="M1212.09 536.313C1238.18 536.313 1259.34 515.162 1259.34 489.07C1259.34 462.978 1238.18 441.826 1212.09 441.826C1186 441.826 1164.85 462.978 1164.85 489.07C1164.85 515.162 1186 536.313 1212.09 536.313Z" fill="#FFB8B8"/>
                        <path id="Vector 164" d="M1176.83 512.692C1176.83 512.692 1185.73 579.791 1172.04 587.323C1158.34 594.854 1253.52 595.539 1253.52 595.539C1253.52 595.539 1232.29 537.34 1241.88 519.538L1176.83 512.692Z" fill="#FFB8B8"/>
                        <path id="Vector 165" d="M1323.01 595.878L1315.1 631.92L1298.36 708.173L1297.86 712.349L1292.08 760.693L1288.24 792.81L1285.67 814.383C1270 822.433 1258.65 827.99 1258.65 827.99C1258.65 827.99 1257.67 823.095 1256.1 816.831C1245.11 820.127 1224.77 825.594 1207.53 826.686C1213.81 833.683 1216.69 840.255 1212.78 845.105C1200.97 859.728 1152.22 829.095 1135.17 817.673C1134.77 820.408 1134.62 823.173 1134.72 825.934L1121.67 815.899L1122.96 792.81L1125.14 753.742L1127.88 704.749C1127.02 702.651 1126.29 700.498 1125.71 698.305C1121.72 684.094 1116.87 655.716 1113.15 631.92C1110.15 612.768 1107.9 596.585 1107.43 593.141C1107.36 592.692 1107.33 592.46 1107.33 592.46L1179.56 560.543C1184.7 572.448 1208.67 576.026 1208.67 576.026C1228.53 574.658 1244.09 564.186 1244.09 564.186L1323.01 595.878Z" fill="#D0CDE1"/>
                        <path id="Vector 166" d="M1264.13 814.3C1264.13 814.3 1261.07 815.347 1256.1 816.831C1245.11 820.127 1224.77 825.594 1207.53 826.686C1192.69 827.637 1180.15 825.35 1177.86 815.668C1176.87 811.505 1178.27 808.081 1181.31 805.267C1190.38 796.857 1214.07 793.844 1232.86 792.81C1238.17 792.52 1243.08 792.386 1247.16 792.334C1254.1 792.244 1258.65 792.386 1258.65 792.386L1258.76 792.81L1264.13 814.3Z" fill="#FFB8B8"/>
                        <path id="Vector 167" d="M1172.79 444.382L1163.96 440.845C1163.96 440.845 1182.43 420.511 1208.12 422.279L1200.9 414.323C1200.9 414.323 1218.56 407.25 1234.62 425.816C1243.07 435.575 1252.83 447.047 1258.92 459.971H1268.38L1264.44 468.664L1278.25 477.358L1264.07 475.796C1264.92 480.557 1265.05 485.417 1264.46 490.216C1263.85 495.016 1261.4 499.393 1257.62 502.421C1257.62 502.421 1246.67 479.745 1246.67 476.209V485.05C1246.67 485.05 1237.84 477.093 1237.84 471.789L1233.02 477.977L1230.61 468.252L1200.9 477.977L1205.71 470.021L1187.24 472.673L1194.47 462.948C1194.47 462.948 1173.59 474.441 1172.79 484.166C1171.99 493.891 1165.88 503.106 1165.88 503.106C1165.88 503.106 1149.5 457.643 1172.79 444.382Z" fill="#2F2E41"/>
                        <path id="Vector 168" d="M1374.36 761.574C1369.55 766.79 1357.63 774.647 1343.17 783.154C1337.79 786.314 1332.07 789.572 1326.23 792.81C1312.29 800.538 1297.7 808.196 1285.67 814.383C1270 822.433 1258.65 827.99 1258.65 827.99C1258.65 827.99 1257.67 823.095 1256.1 816.831C1253.99 808.447 1250.82 797.609 1247.51 792.81C1247.39 792.643 1247.28 792.488 1247.16 792.334C1246.2 791.069 1245.23 790.33 1244.27 790.33L1292.08 760.693L1312.74 747.883L1297.86 712.349L1279.19 667.775L1290.46 631.92L1301.78 595.878H1323.01C1323.01 595.878 1330.04 611.22 1339.03 632.614C1340.37 635.813 1341.76 639.148 1343.17 642.591C1361.66 687.563 1384.71 750.363 1374.36 761.574Z" fill="#D0CDE1"/>
                        <path id="Vector 169" d="M1212.78 845.105C1200.97 859.727 1152.22 829.095 1135.17 817.673C1131.46 815.186 1129.25 813.612 1129.25 813.612L1144.85 792.81L1149.79 786.224C1149.79 786.224 1154.21 788.569 1160.74 792.386C1160.98 792.527 1161.22 792.668 1161.46 792.81C1167.09 796.118 1174.17 800.442 1181.31 805.267C1191.15 811.929 1201.11 819.529 1207.53 826.686C1213.81 833.682 1216.69 840.255 1212.78 845.105Z" fill="#FFB8B8"/>
                        <path id="Vector 170" d="M1171.59 680.136L1179.78 689.696C1182.83 689.116 1186.01 688.434 1189.28 687.668L1186.93 680.136L1192.68 686.85C1227.37 678.318 1270.37 661.729 1270.37 661.729C1270.37 661.729 1223.95 665.133 1189.29 657.56C1173.95 654.21 1158.18 661.812 1151.88 676.193C1148.22 684.552 1148.8 691.794 1161.77 691.794C1166.16 691.719 1170.53 691.308 1174.85 690.564L1171.59 680.136Z" fill="#B6B5D5"/>
                        <path id="Vector (Stroke)" fill-rule="evenodd" clip-rule="evenodd" d="M1204.11 709.096C1195.79 709.096 1189.05 715.839 1189.05 724.157C1189.05 732.475 1195.79 739.218 1204.11 739.218C1212.43 739.218 1219.17 732.475 1219.17 724.157C1219.17 715.839 1212.43 709.096 1204.11 709.096ZM1187.05 724.157C1187.05 714.734 1194.69 707.096 1204.11 707.096C1213.53 707.096 1221.17 714.734 1221.17 724.157C1221.17 733.58 1213.53 741.218 1204.11 741.218C1194.69 741.218 1187.05 733.58 1187.05 724.157Z" fill="#D0CDE1"/>
                        <path id="Vector 171" d="M1198.97 746C1207.84 746 1215.03 738.809 1215.03 729.939C1215.03 721.069 1207.84 713.878 1198.97 713.878C1190.1 713.878 1182.91 721.069 1182.91 729.939C1182.91 738.809 1190.1 746 1198.97 746Z" fill="#D0CDE1"/>
                        <path id="Vector 172" d="M1160.74 792.386C1159 792.379 1157.26 792.521 1155.54 792.81C1140.77 795.347 1136.41 808.717 1135.17 817.673C1134.77 820.408 1134.62 823.173 1134.72 825.935L1121.67 815.899L1116.92 812.244C1105.48 808.254 1095.28 801.168 1086.44 792.81C1078.77 785.43 1071.89 777.272 1065.91 768.467C1059.96 759.789 1054.65 750.684 1050.03 741.227C1048.74 738.588 1048.05 735.698 1048 732.761C1047.96 729.825 1048.55 726.914 1049.76 724.234L1065.91 688.225L1089.53 635.595C1089.7 634.342 1089.89 633.117 1090.1 631.92C1094.79 605.065 1107.33 593.141 1107.33 593.141H1116.92L1123.33 631.92L1131.3 680.098L1125.71 698.305L1112.81 740.353L1125.14 753.742L1160.74 792.386Z" fill="#D0CDE1"/>
                        <path id="Vector 63" d="M1326.43 504.79C1327.32 504.79 1328.04 504.069 1328.04 503.18C1328.04 502.291 1327.32 501.57 1326.43 501.57C1325.54 501.57 1324.82 502.291 1324.82 503.18C1324.82 504.069 1325.54 504.79 1326.43 504.79Z" fill="#E7EFFD"/>
                        <path id="Vector 64" d="M1095.52 821.24C1095.52 821.24 1075.52 816.59 1066.21 812.3C1056.9 808.01 1004.73 799.79 993.29 824.46C981.85 849.13 1009.02 882 1015.81 885.58C1022.6 889.16 1088.73 840.17 1088.73 840.17L1140.89 862.17L1150.89 828.03L1095.52 821.24Z" fill="#65617D"/>
                        <path id="Vector 65" d="M1307.83 828.03H1154.42C1134.08 828.03 1117.59 844.519 1117.59 864.86V870.19C1117.59 890.531 1134.08 907.02 1154.42 907.02H1307.83C1328.17 907.02 1344.66 890.531 1344.66 870.19V864.86C1344.66 844.519 1328.17 828.03 1307.83 828.03Z" fill="#65617D"/>
                        <path id="Vector 66" opacity="0.1" d="M1344.66 867.52C1344.67 875.289 1342.38 882.888 1338.08 889.36C1336.62 891.553 1334.94 893.596 1333.08 895.46C1329.42 899.134 1325.06 902.047 1320.27 904.033C1315.48 906.018 1310.34 907.037 1305.15 907.03H1157.09C1146.61 907.03 1136.57 902.868 1129.16 895.461C1121.75 888.053 1117.59 878.006 1117.59 867.53C1117.59 857.054 1121.75 847.007 1129.16 839.599C1136.57 832.192 1146.61 828.03 1157.09 828.03H1305.16C1315.63 828.03 1325.68 832.19 1333.09 839.596C1340.5 847.001 1344.66 857.046 1344.66 867.52Z" fill="black"/>
                        <path id="Vector 67" d="M1221.03 869.83C1221.03 869.83 1198.26 875.68 1179.68 875.42C1161.1 875.16 1074.19 911.27 1074.19 911.27C1074.19 911.27 1061.68 939.79 1082.09 937.43C1102.5 935.07 1112.44 925.17 1126.83 925.17C1141.22 925.17 1186.49 920.17 1186.49 920.17L1230.05 887.99L1221.03 869.83Z" fill="#FBBEBE"/>
                        <path id="Vector 68" d="M1279.6 816.23C1279.6 816.23 1312.84 813.73 1326.43 798.36C1340.02 782.99 1374.32 774.77 1374.32 774.77C1374.32 774.77 1456.89 765.12 1424.32 838.04C1424.32 838.04 1422.18 846.26 1417.89 848.76C1413.6 851.26 1403.24 857.7 1403.24 857.7L1276.41 846.62L1279.6 816.23Z" fill="#65617D"/>
                        <path id="Vector 69" opacity="0.1" d="M1344.66 867.52C1344.67 875.289 1342.38 882.888 1338.08 889.36C1316.74 891.25 1269.48 895.69 1259.59 898.45C1247.44 901.82 1222.85 895.95 1220.16 895.29L1219.91 895.23C1219.91 895.23 1215.17 880.85 1212.91 871.65C1211.91 867.47 1211.38 864.36 1212.04 864.13C1214.19 863.42 1233.85 858.05 1233.49 861.13C1233.13 864.21 1292.49 838.07 1292.49 838.07L1294.31 860.95C1300.34 867.85 1344.66 857.59 1344.66 867.52Z" fill="black"/>
                        <path id="Vector 70" d="M1405.78 848.4L1403.28 857.7C1397.57 864.054 1390.8 869.372 1383.28 873.42C1371.48 879.5 1350.75 889.51 1350.75 889.51C1350.75 889.51 1274.62 895.94 1261.75 899.51C1248.88 903.08 1222.07 896.29 1222.07 896.29C1222.07 896.29 1212.07 865.91 1214.21 865.19C1216.35 864.47 1236.01 859.12 1235.66 862.19C1235.31 865.26 1294.66 839.13 1294.66 839.13L1405.78 848.4Z" fill="#65617D"/>
                        <path id="Vector 71" d="M1193.81 928.54C1193.81 928.54 1231.23 931.15 1240.13 934.54C1249.03 937.93 1312.61 933.24 1312.61 933.24C1312.61 933.24 1353.69 934.04 1365.46 937.56C1377.23 941.08 1373.05 901.56 1351.33 897.13C1329.61 892.7 1299 899.22 1299 899.22C1299 899.22 1264.46 894.77 1260.27 894.22C1256.08 893.67 1228.49 894.47 1228.49 894.47L1193.81 928.54Z" fill="#FBBEBE"/>
                        <path id="Vector 72" opacity="0.1" d="M1046.76 829.89C1046.76 829.89 1096.22 834.34 1109.82 842.45L1046.76 829.89Z" fill="black"/>
                        <path id="Vector 73" opacity="0.1" d="M1355.26 797.45C1355.26 797.45 1316.53 806.87 1301.35 820.73L1355.26 797.45Z" fill="black"/>
                        <path id="Vector 74" opacity="0.1" d="M1049.64 818.64C1050.43 818.9 1072.41 821.78 1071.88 823.87C1071.35 825.96 1049.64 818.64 1049.64 818.64Z" fill="black"/>
                        <path id="Vector 75" opacity="0.1" d="M1015.1 873.78L1017.96 884.51C1017.96 884.51 1024.39 889.51 1025.82 892.01C1027.25 894.51 1035.47 895.23 1035.47 895.23C1035.47 895.23 1044.05 899.16 1046.2 901.3C1048.35 903.44 1071.57 910.24 1093.38 913.1C1115.19 915.96 1155.57 921.32 1164.15 924.18C1170.21 926.06 1176.44 927.376 1182.74 928.11C1182.74 928.11 1198.82 936.69 1207.4 934.55C1215.98 932.41 1230.63 893.44 1230.63 893.44C1230.63 893.44 1174.16 880.22 1172.37 875.93C1170.58 871.64 1116.25 851.63 1116.25 851.63L1084.08 852.39L1015.1 873.78Z" fill="black"/>
                        <path id="Vector 76" d="M1012.95 874.85L1015.81 885.58C1015.81 885.58 1022.25 890.58 1023.68 893.08C1025.11 895.58 1033.33 896.3 1033.33 896.3C1033.33 896.3 1041.91 900.23 1044.05 902.38C1046.19 904.53 1069.43 911.31 1091.23 914.17C1113.03 917.03 1153.43 922.39 1162.01 925.25C1168.07 927.124 1174.29 928.436 1180.59 929.17C1180.59 929.17 1196.68 937.74 1205.26 935.6C1213.84 933.46 1228.49 894.49 1228.49 894.49C1228.49 894.49 1172.01 881.27 1170.23 876.98C1168.45 872.69 1088.73 840.17 1088.73 840.17L1063.73 834.45L1012.95 874.85Z" fill="#65617D"/>
                        <path id="Vector 77" opacity="0.1" d="M1076.33 709.01C1077.12 710.32 1101.19 713.01 1102.76 717.28C1104.33 721.55 1076.33 709.01 1076.33 709.01Z" fill="black"/>
                        <path id="Vector 78" opacity="0.1" d="M1068.74 729.42C1068.74 729.42 1072.01 719.21 1079.74 721.04C1087.47 722.87 1068.74 729.42 1068.74 729.42Z" fill="black"/>
                        <path id="Vector 79" opacity="0.1" d="M1064.56 744.33C1064.56 744.33 1070.31 730.72 1078.16 731.77C1086.01 732.82 1064.56 744.33 1064.56 744.33Z" fill="black"/>
                        <path id="Vector 80" opacity="0.1" d="M1294.29 686.77C1294.29 686.77 1313.13 682.06 1315.48 685.72C1317.83 689.38 1294.29 686.77 1294.29 686.77Z" fill="black"/>
                        <path id="Vector 81" opacity="0.1" d="M1290.1 696.71C1290.1 696.71 1318.36 692.78 1320.19 698.54C1322.02 704.3 1290.1 696.71 1290.1 696.71Z" fill="black"/>
                        <path id="Vector 82" opacity="0.1" d="M1294.29 709.01C1295.34 709.27 1321.5 711.1 1322.02 716.07C1322.54 721.04 1294.29 709.01 1294.29 709.01Z" fill="black"/>
                        <path id="Vector 83" d="M1196.13 797.02C1200.69 797.02 1204.39 793.322 1204.39 788.76C1204.39 784.198 1200.69 780.5 1196.13 780.5C1191.57 780.5 1187.87 784.198 1187.87 788.76C1187.87 793.322 1191.57 797.02 1196.13 797.02Z" fill="#E7EFFD"/>
                        <path id="Vector 84" opacity="0.1" d="M1121.61 647.11C1121.61 647.11 1143.09 663.53 1159.7 651.02C1159.7 651.02 1131.62 653.57 1121.61 647.11Z" fill="black"/>
                        </g>
                        <g id="plantas2">
                        <path id="Vector 129" d="M944.62 746.17C943.593 747.58 942.772 749.129 942.18 750.77C942.03 751.17 941.88 751.63 941.73 752.07C941.46 751.938 941.175 751.84 940.88 751.78C939.633 751.463 938.343 751.351 937.06 751.45C937.06 750.95 937.11 750.45 937.13 749.88C937.29 744.22 936.62 736.35 931.23 739.68C926.06 742.9 929.75 748.24 933.09 751.68C933.38 751.98 933.66 752.25 933.94 752.52C930.94 754.71 930.32 759.74 929.81 765.01C929.3 770.28 924.81 776.01 921.87 779.31C921.58 779.64 921.3 779.94 921.03 780.22C919.834 779.258 918.446 778.562 916.96 778.179C915.473 777.796 913.922 777.735 912.41 778L912.01 776.54C909.61 767.87 904.62 752.85 898.26 749.54L899.1 748.48C901.8 744.94 904.84 739.69 900.35 738.35C895.86 737.01 895.45 742.9 895.7 747.35C895.7 747.9 895.78 748.43 895.83 748.92C894.931 748.962 894.049 749.187 893.239 749.58C892.43 749.974 891.709 750.529 891.12 751.21C890.91 750.95 890.68 750.68 890.43 750.39C886.79 746.08 880.1 739.27 878.08 744.39C876.2 749.19 882.08 755.39 886.22 759.05L886.48 759.27C883.7 770.55 895.82 779.73 902.36 783.75C902.65 783.94 902.93 784.11 903.2 784.27C894.2 794.88 888.63 814.78 888.63 814.78L913.89 819.37C913.89 819.37 930.62 804.94 928.48 791.37H928.65C945.36 788.02 949.16 770.2 946.56 759.62L946.85 759.5C949.893 758.253 952.56 756.237 954.59 753.65C959.23 747.17 949.42 739.82 944.62 746.17Z" fill="#6C63FF"/>
                        <path id="Vector 130" opacity="0.1" d="M944.62 746.17C943.593 747.58 942.772 749.129 942.18 750.77C942.03 751.17 941.88 751.63 941.73 752.07C941.46 751.938 941.175 751.84 940.88 751.78C939.633 751.463 938.343 751.351 937.06 751.45C937.06 750.95 937.11 750.45 937.13 749.88C937.29 744.22 936.62 736.35 931.23 739.68C926.06 742.9 929.75 748.24 933.09 751.68C933.38 751.98 933.66 752.25 933.94 752.52C930.94 754.71 930.32 759.74 929.81 765.01C929.3 770.28 924.81 776.01 921.87 779.31C921.58 779.64 921.3 779.94 921.03 780.22C919.834 779.258 918.446 778.562 916.96 778.179C915.473 777.796 913.922 777.735 912.41 778L912.01 776.54C909.61 767.87 904.62 752.85 898.26 749.54L899.1 748.48C901.8 744.94 904.84 739.69 900.35 738.35C895.86 737.01 895.45 742.9 895.7 747.35C895.7 747.9 895.78 748.43 895.83 748.92C894.931 748.962 894.049 749.187 893.239 749.58C892.43 749.974 891.709 750.529 891.12 751.21C890.91 750.95 890.68 750.68 890.43 750.39C886.79 746.08 880.1 739.27 878.08 744.39C876.2 749.19 882.08 755.39 886.22 759.05L886.48 759.27C883.7 770.55 895.82 779.73 902.36 783.75C902.65 783.94 902.93 784.11 903.2 784.27C894.2 794.88 888.63 814.78 888.63 814.78L913.89 819.37C913.89 819.37 930.62 804.94 928.48 791.37H928.65C945.36 788.02 949.16 770.2 946.56 759.62L946.85 759.5C949.893 758.253 952.56 756.237 954.59 753.65C959.23 747.17 949.42 739.82 944.62 746.17Z" fill="black"/>
                        <g id="extremidades">
                        <path id="Vector 131" d="M894.42 753.47L891.47 762.11C891.47 762.11 889.83 760.95 887.76 759.11C883.62 755.49 877.76 749.25 879.62 744.45C881.62 739.29 888.33 746.1 891.98 750.45C893.44 752.17 894.42 753.47 894.42 753.47Z" fill="#6C63FF"/>
                        <path id="Vector 132" d="M900.64 748.55C899.743 749.726 898.785 750.854 897.77 751.93C897.515 750.427 897.338 748.911 897.24 747.39C897 742.97 897.46 737.1 901.89 738.39C906.32 739.68 903.34 745.01 900.64 748.55Z" fill="#6C63FF"/>
                        <path id="Vector 133" d="M938.68 749.91C938.58 752.75 938.31 755.02 938.31 755.02C937.013 754.005 935.783 752.906 934.63 751.73C931.29 748.27 927.63 742.93 932.78 739.73C938.17 736.38 938.83 744.25 938.68 749.91Z" fill="#6C63FF"/>
                        <path id="Vector 134" d="M956.1 753.63C954.07 756.217 951.403 758.233 948.36 759.48C947.515 759.85 946.647 760.164 945.76 760.42L942.29 755.54C942.657 753.928 943.139 752.344 943.73 750.8C944.318 749.157 945.14 747.608 946.17 746.2C950.97 739.82 960.77 747.17 956.1 753.63Z" fill="#6C63FF"/>
                        </g>
                        <g id="medio">
                        <path id="Vector 135" opacity="0.1" d="M891.98 750.43C893.44 752.15 894.42 753.43 894.42 753.43L891.47 762.07C891.47 762.07 889.83 760.91 887.76 759.07C888.221 756.304 889.362 753.696 891.08 751.48C891.38 751.12 891.68 750.77 891.98 750.43Z" fill="black"/>
                        <path id="Vector 136" opacity="0.1" d="M900.64 748.55C899.743 749.726 898.785 750.854 897.77 751.93C897.515 750.427 897.338 748.911 897.24 747.39C898.467 747.411 899.656 747.817 900.64 748.55Z" fill="black"/>
                        <path id="Vector 137" d="M915.14 776.419L907.81 779.04C906.47 778.497 905.165 777.899 903.9 777.247C896.19 773.401 880.69 763.722 891.08 752.307C901.47 740.892 910.14 761.362 913.55 771.373C914.59 774.367 915.14 776.419 915.14 776.419Z" fill="#6C63FF"/>
                        <path id="Vector 138" opacity="0.1" d="M934.63 750.978C935.698 750.332 937.147 749.949 938.68 749.91C938.58 751.577 938.31 752.91 938.31 752.91C937.013 752.314 935.783 751.669 934.63 750.978Z" fill="black"/>
                        <path id="Vector 139" opacity="0.1" d="M948.36 753.507C947.515 753.622 946.647 753.72 945.76 753.8L942.29 752.278C942.657 751.775 943.139 751.281 943.73 750.8C945.97 751.209 947.62 752.225 948.36 753.507Z" fill="black"/>
                        <path id="Vector 140" d="M930.15 789.393C929.75 789.469 929.33 789.545 928.92 789.603C904.33 793.159 920.81 780.54 920.81 780.54C920.81 780.54 921.92 779.589 923.42 777.991C926.42 774.872 930.85 769.432 931.36 764.392C932.13 756.784 933.02 749.699 942.43 751.791C951.66 753.845 953.42 784.962 930.15 789.393Z" fill="#6C63FF"/>
                        </g>
                        <path id="Vector 141" d="M929.7 852.57H882.72V862.92H929.7V852.57Z" fill="#D4DFEC"/>
                        <path id="Vector 142" d="M936.63 812.42H875.25V855.53H936.63V812.42Z" fill="#D4DFEC"/>
                        <path id="Vector 143" opacity="0.1" d="M929.7 852.57H882.72V864.92H929.7V852.57Z" fill="black"/>
                        <path id="Vector 144" opacity="0.1" d="M936.63 812.42H875.25V855.53H936.63V812.42Z" fill="black"/>
                        <path id="Vector 145" d="M932.78 852.57H885.8V864.92H932.78V852.57Z" fill="#D4DFEC"/>
                        <path id="Vector 146" opacity="0.1" d="M913.55 776.59C914.55 780.28 915.14 782.81 915.14 782.81L907.81 786.04C906.47 785.371 905.165 784.633 903.9 783.83C906.77 780.17 910.01 777.44 913.55 776.59Z" fill="black"/>
                        <path id="Vector 147" opacity="0.1" d="M930.15 791.35C929.75 791.43 929.33 791.51 928.92 791.57C904.33 795.31 920.81 782.04 920.81 782.04C920.81 782.04 921.92 781.04 923.42 779.36C928.01 783.03 929.89 787.17 930.15 791.35Z" fill="black"/>
                        <path id="Vector 148" d="M890.18 814.86C890.18 814.86 903.95 765.58 923.25 780.76C942.55 795.94 915.4 819.37 915.4 819.37L890.18 814.86Z" fill="#6C63FF"/>
                        <path id="Vector 149" opacity="0.1" d="M897.13 762.36C897.98 762.36 898.67 761.671 898.67 760.82C898.67 759.969 897.98 759.28 897.13 759.28C896.279 759.28 895.59 759.969 895.59 760.82C895.59 761.671 896.279 762.36 897.13 762.36Z" fill="black"/>
                        <path id="Vector 150" opacity="0.1" d="M897 769.56C897.85 769.56 898.54 768.871 898.54 768.02C898.54 767.17 897.85 766.48 897 766.48C896.149 766.48 895.46 767.17 895.46 768.02C895.46 768.871 896.149 769.56 897 769.56Z" fill="black"/>
                        <path id="Vector 151" opacity="0.1" d="M941.78 763.77C942.631 763.77 943.32 763.08 943.32 762.23C943.32 761.379 942.631 760.69 941.78 760.69C940.929 760.69 940.24 761.379 940.24 762.23C940.24 763.08 940.929 763.77 941.78 763.77Z" fill="black"/>
                        <path id="Vector 152" opacity="0.1" d="M905.75 800.7C906.6 800.7 907.29 800.01 907.29 799.16C907.29 798.309 906.6 797.62 905.75 797.62C904.899 797.62 904.21 798.309 904.21 799.16C904.21 800.01 904.899 800.7 905.75 800.7Z" fill="black"/>
                        <path id="Vector 153" opacity="0.1" d="M938.57 775.74C939.421 775.74 940.11 775.051 940.11 774.2C940.11 773.349 939.421 772.66 938.57 772.66C937.72 772.66 937.03 773.349 937.03 774.2C937.03 775.051 937.72 775.74 938.57 775.74Z" fill="black"/>
                        <path id="Vector 154" opacity="0.1" d="M922.61 791.7C923.461 791.7 924.15 791.01 924.15 790.16C924.15 789.309 923.461 788.62 922.61 788.62C921.76 788.62 921.07 789.309 921.07 790.16C921.07 791.01 921.76 791.7 922.61 791.7Z" fill="black"/>
                        <path id="Vector 155" opacity="0.1" d="M902.41 765.44C903.261 765.44 903.95 764.751 903.95 763.9C903.95 763.05 903.261 762.36 902.41 762.36C901.559 762.36 900.87 763.05 900.87 763.9C900.87 764.751 901.559 765.44 902.41 765.44Z" fill="black"/>
                        <path id="Vector 156" opacity="0.1" d="M937.54 768.4C938.391 768.4 939.08 767.711 939.08 766.86C939.08 766.009 938.391 765.32 937.54 765.32C936.689 765.32 936 766.009 936 766.86C936 767.711 936.689 768.4 937.54 768.4Z" fill="black"/>
                        <path id="Vector 157" opacity="0.1" d="M932.26 780.37C933.11 780.37 933.8 779.681 933.8 778.83C933.8 777.979 933.11 777.29 932.26 777.29C931.409 777.29 930.72 777.979 930.72 778.83C930.72 779.681 931.409 780.37 932.26 780.37Z" fill="black"/>
                        <path id="Vector 158" opacity="0.1" d="M916.05 799.55C916.901 799.55 917.59 798.861 917.59 798.01C917.59 797.159 916.901 796.47 916.05 796.47C915.199 796.47 914.51 797.159 914.51 798.01C914.51 798.861 915.199 799.55 916.05 799.55Z" fill="black"/>
                        <path id="Vector 159" opacity="0.1" d="M912.7 791.95C913.551 791.95 914.24 791.26 914.24 790.41C914.24 789.559 913.551 788.87 912.7 788.87C911.85 788.87 911.16 789.559 911.16 790.41C911.16 791.26 911.85 791.95 912.7 791.95Z" fill="black"/>
                        <path id="Vector 160" opacity="0.1" d="M904.72 774.84C905.57 774.84 906.26 774.151 906.26 773.3C906.26 772.449 905.57 771.76 904.72 771.76C903.869 771.76 903.18 772.449 903.18 773.3C903.18 774.151 903.869 774.84 904.72 774.84Z" fill="black"/>
                        <path id="Vector 161" opacity="0.1" d="M932.78 852.57H885.8V857.08H932.78V852.57Z" fill="black"/>
                        <path id="Vector 162" d="M939.72 812.42H878.34V855.53H939.72V812.42Z" fill="#D4DFEC"/>
                        <path id="Vector 173" opacity="0.1" d="M918.11 806.5C918.961 806.5 919.65 805.811 919.65 804.96C919.65 804.11 918.961 803.42 918.11 803.42C917.26 803.42 916.57 804.11 916.57 804.96C916.57 805.811 917.26 806.5 918.11 806.5Z" fill="black"/>
                        </g>
                        <path id="Vector 174" d="M1297.7 725.12H1094.56C1088.78 725.12 1084.09 729.808 1084.09 735.59V841.92C1084.09 847.702 1088.78 852.39 1094.56 852.39H1297.7C1303.48 852.39 1308.17 847.702 1308.17 841.92V735.59C1308.17 729.808 1303.48 725.12 1297.7 725.12Z" fill="#3F3D56"/>
                        <path id="Vector 175" opacity="0.1" d="M908.84 808.43C909.691 808.43 910.38 807.741 910.38 806.89C910.38 806.039 909.691 805.35 908.84 805.35C907.99 805.35 907.3 806.039 907.3 806.89C907.3 807.741 907.99 808.43 908.84 808.43Z" fill="black"/>
                        </g>
                        </g>
                        </g>
                        <defs>
                        <filter id="filter0_d" x="579" y="837" width="1348" height="403.882" filterUnits="userSpaceOnUse" color-interpolation-filters="sRGB">
                        <feFlood flood-opacity="0" result="BackgroundImageFix"/>
                        <feColorMatrix in="SourceAlpha" type="matrix" values="0 0 0 0 0 0 0 0 0 0 0 0 0 0 0 0 0 0 127 0"/>
                        <feOffset dx="2" dy="5"/>
                        <feGaussianBlur stdDeviation="10"/>
                        <feColorMatrix type="matrix" values="0 0 0 0 0 0 0 0 0 0 0 0 0 0 0 0 0 0 0.13 0"/>
                        <feBlend mode="normal" in2="BackgroundImageFix" result="effect1_dropShadow"/>
                        <feBlend mode="normal" in="SourceGraphic" in2="effect1_dropShadow" result="shape"/>
                        </filter>
                        <linearGradient id="paint0_linear" x1="150067" y1="27114.8" x2="150067" y2="11526.3" gradientUnits="userSpaceOnUse">
                        <stop stop-color="#808080" stop-opacity="0.25"/>
                        <stop offset="0.54" stop-color="#808080" stop-opacity="0.12"/>
                        <stop offset="1" stop-color="#808080" stop-opacity="0.1"/>
                        </linearGradient>
                        <linearGradient id="paint1_linear" x1="32875.9" y1="38454" x2="32875.9" y2="34917.2" gradientUnits="userSpaceOnUse">
                        <stop stop-color="#808080" stop-opacity="0.25"/>
                        <stop offset="0.54" stop-color="#808080" stop-opacity="0.12"/>
                        <stop offset="1" stop-color="#808080" stop-opacity="0.1"/>
                        </linearGradient>
                        <linearGradient id="paint2_linear" x1="713563" y1="288780" x2="713563" y2="224213" gradientUnits="userSpaceOnUse">
                        <stop stop-color="#808080" stop-opacity="0.92"/>
                        <stop offset="0.54" stop-color="#808080" stop-opacity="0.12"/>
                        <stop offset="1" stop-color="#808080" stop-opacity="0.1"/>
                        </linearGradient>
                        <linearGradient id="paint3_linear" x1="878.091" y1="858.808" x2="878.091" y2="1127.06" gradientUnits="userSpaceOnUse">
                        <stop stop-color="#F2F2F2"/>
                        <stop offset="0.31" stop-color="#E6E6E6"/>
                        <stop offset="0.77" stop-color="#CCCCCC"/>
                        </linearGradient>
                        <linearGradient id="paint4_linear" x1="87594.8" y1="179170" x2="87594.8" y2="226021" gradientUnits="userSpaceOnUse">
                        <stop stop-color="#F2F2F2"/>
                        <stop offset="0.31" stop-color="#E6E6E6"/>
                        <stop offset="0.77" stop-color="#CCCCCC"/>
                        </linearGradient>
                        <linearGradient id="paint5_linear" x1="191628" y1="179170" x2="191628" y2="226021" gradientUnits="userSpaceOnUse">
                        <stop stop-color="#F2F2F2"/>
                        <stop offset="0.31" stop-color="#E6E6E6"/>
                        <stop offset="0.77" stop-color="#CCCCCC"/>
                        </linearGradient>
                        <linearGradient id="paint6_linear" x1="173956" y1="167439" x2="173956" y2="206513" gradientUnits="userSpaceOnUse">
                        <stop stop-color="#F2F2F2"/>
                        <stop offset="0.31" stop-color="#E6E6E6"/>
                        <stop offset="0.77" stop-color="#CCCCCC"/>
                        </linearGradient>
                        <linearGradient id="paint7_linear" x1="168564" y1="170887" x2="168564" y2="202912" gradientUnits="userSpaceOnUse">
                        <stop stop-color="#F2F2F2"/>
                        <stop offset="0.31" stop-color="#E6E6E6"/>
                        <stop offset="0.77" stop-color="#CCCCCC"/>
                        </linearGradient>
                        <linearGradient id="paint8_linear" x1="194986" y1="110979" x2="194986" y2="122584" gradientUnits="userSpaceOnUse">
                        <stop stop-color="#F2F2F2"/>
                        <stop offset="0.31" stop-color="#E6E6E6"/>
                        <stop offset="0.77" stop-color="#CCCCCC"/>
                        </linearGradient>
                        <linearGradient id="paint9_linear" x1="235301" y1="128617" x2="235301" y2="144872" gradientUnits="userSpaceOnUse">
                        <stop stop-color="#F2F2F2"/>
                        <stop offset="0.31" stop-color="#E6E6E6"/>
                        <stop offset="0.77" stop-color="#CCCCCC"/>
                        </linearGradient>
                        <linearGradient id="paint10_linear" x1="36908.2" y1="27810.7" x2="36908.2" y2="28939.8" gradientUnits="userSpaceOnUse">
                        <stop stop-color="#F2F2F2"/>
                        <stop offset="0.31" stop-color="#E6E6E6"/>
                        <stop offset="0.77" stop-color="#CCCCCC"/>
                        </linearGradient>
                        <linearGradient id="paint11_linear" x1="46814.9" y1="41174.7" x2="46814.9" y2="39611.5" gradientUnits="userSpaceOnUse">
                        <stop stop-color="#808080" stop-opacity="0.61"/>
                        <stop offset="0.208333" stop-color="#808080" stop-opacity="0.1"/>
                        <stop offset="0.208433" stop-color="#808080" stop-opacity="0.12"/>
                        <stop offset="0.401042" stop-color="#808080" stop-opacity="0.113043"/>
                        </linearGradient>
                        <linearGradient id="paint12_linear" x1="1875.86" y1="1101.57" x2="1875.86" y2="1152.55" gradientUnits="userSpaceOnUse">
                        <stop stop-color="#F2F2F2"/>
                        <stop offset="0.31" stop-color="#E0E0E0"/>
                        <stop offset="0.77" stop-color="#B3B3B3"/>
                        </linearGradient>
                        <linearGradient id="paint13_linear" x1="44561.7" y1="37717.3" x2="44561.7" y2="39128.4" gradientUnits="userSpaceOnUse">
                        <stop stop-color="#F2F2F2"/>
                        <stop offset="0.31" stop-color="#E6E6E6"/>
                        <stop offset="0.77" stop-color="#CCCCCC"/>
                        </linearGradient>
                        <linearGradient id="paint14_linear" x1="9660.25" y1="36643.1" x2="9660.25" y2="38366" gradientUnits="userSpaceOnUse">
                        <stop stop-color="#F2F2F2"/>
                        <stop offset="0.31" stop-color="#E6E6E6"/>
                        <stop offset="0.77" stop-color="#CCCCCC"/>
                        </linearGradient>
                        <linearGradient id="paint15_linear" x1="10085.5" y1="40168.4" x2="10085.5" y2="38280.3" gradientUnits="userSpaceOnUse">
                        <stop stop-color="#808080" stop-opacity="0.25"/>
                        <stop offset="0.54" stop-color="#808080" stop-opacity="0.12"/>
                        <stop offset="1" stop-color="#808080" stop-opacity="0.1"/>
                        </linearGradient>
                        <linearGradient id="paint16_linear" x1="105046" y1="128666" x2="105046" y2="144930" gradientUnits="userSpaceOnUse">
                        <stop stop-color="#F2F2F2"/>
                        <stop offset="0.31" stop-color="#E6E6E6"/>
                        <stop offset="0.77" stop-color="#CCCCCC"/>
                        </linearGradient>
                        <linearGradient id="paint17_linear" x1="39690.9" y1="31208.5" x2="39690.9" y2="29893.5" gradientUnits="userSpaceOnUse">
                        <stop stop-color="#808080" stop-opacity="0.36"/>
                        <stop offset="0.54" stop-color="#808080" stop-opacity="0.12"/>
                        <stop offset="1" stop-color="#808080" stop-opacity="0.1"/>
                        </linearGradient>
                        <linearGradient id="paint18_linear" x1="1213.89" y1="849.37" x2="1213.89" y2="231" gradientUnits="userSpaceOnUse">
                        <stop offset="0.2" stop-color="#808080" stop-opacity="0.4"/>
                        <stop offset="0.46" stop-color="#808080" stop-opacity="0.5"/>
                        <stop offset="1" stop-opacity="0.6"/>
                        </linearGradient>
                        <clipPath id="clip0">
                        <rect width="1744" height="427" fill="white" transform="translate(379 736)"/>
                        </clipPath>
                        <clipPath id="clip1">
                        <rect width="1110" height="749" fill="white" transform="translate(659 231)"/>
                        </clipPath>
                        </defs>
                        </svg>
